<mxfile host="app.diagrams.net" modified="2024-05-11T21:18:20.706Z" agent="Mozilla/5.0 (Windows NT 10.0; Win64; x64) AppleWebKit/537.36 (KHTML, like Gecko) Chrome/124.0.0.0 Safari/537.36" etag="tF7BJN3kaMPmRz4dM0Lh" version="24.4.0" type="device">
  <diagram name="Page-1" id="8rYX_oYKaFYk3fsOVLMQ">
    <mxGraphModel dx="1195" dy="643" grid="1" gridSize="10" guides="1" tooltips="1" connect="1" arrows="1" fold="1" page="1" pageScale="1" pageWidth="850" pageHeight="1100" math="0" shadow="0">
      <root>
        <mxCell id="0" />
        <mxCell id="1" parent="0" />
        <mxCell id="h0lgFhRinCzN1165WuQ4-23" style="edgeStyle=orthogonalEdgeStyle;rounded=0;orthogonalLoop=1;jettySize=auto;html=1;entryX=0;entryY=0.5;entryDx=0;entryDy=0;" edge="1" parent="1" source="h0lgFhRinCzN1165WuQ4-20" target="h0lgFhRinCzN1165WuQ4-22">
          <mxGeometry relative="1" as="geometry" />
        </mxCell>
        <mxCell id="h0lgFhRinCzN1165WuQ4-20" value="Temperature sensors" style="ellipse;whiteSpace=wrap;html=1;aspect=fixed;" vertex="1" parent="1">
          <mxGeometry x="20" y="150" width="80" height="80" as="geometry" />
        </mxCell>
        <mxCell id="h0lgFhRinCzN1165WuQ4-24" style="edgeStyle=orthogonalEdgeStyle;rounded=0;orthogonalLoop=1;jettySize=auto;html=1;endSize=6;endArrow=none;endFill=0;" edge="1" parent="1" source="h0lgFhRinCzN1165WuQ4-21">
          <mxGeometry relative="1" as="geometry">
            <mxPoint x="140" y="190" as="targetPoint" />
          </mxGeometry>
        </mxCell>
        <mxCell id="h0lgFhRinCzN1165WuQ4-21" value="RTC Module" style="ellipse;whiteSpace=wrap;html=1;aspect=fixed;" vertex="1" parent="1">
          <mxGeometry x="20" y="40" width="80" height="80" as="geometry" />
        </mxCell>
        <mxCell id="h0lgFhRinCzN1165WuQ4-25" value="Timestamped&lt;br&gt;temperature data" style="text;html=1;align=center;verticalAlign=middle;resizable=0;points=[];autosize=1;strokeColor=none;fillColor=none;" vertex="1" parent="1">
          <mxGeometry x="140" y="200" width="110" height="40" as="geometry" />
        </mxCell>
        <mxCell id="h0lgFhRinCzN1165WuQ4-27" value="Transmitter" style="swimlane;whiteSpace=wrap;html=1;" vertex="1" parent="1">
          <mxGeometry x="10" y="10" width="790" height="320" as="geometry" />
        </mxCell>
        <mxCell id="h0lgFhRinCzN1165WuQ4-30" style="edgeStyle=orthogonalEdgeStyle;rounded=0;orthogonalLoop=1;jettySize=auto;html=1;" edge="1" parent="h0lgFhRinCzN1165WuQ4-27" source="h0lgFhRinCzN1165WuQ4-28">
          <mxGeometry relative="1" as="geometry">
            <mxPoint x="770" y="180" as="targetPoint" />
          </mxGeometry>
        </mxCell>
        <mxCell id="h0lgFhRinCzN1165WuQ4-28" value="LoRa&lt;div&gt;Module&lt;/div&gt;" style="ellipse;whiteSpace=wrap;html=1;aspect=fixed;" vertex="1" parent="h0lgFhRinCzN1165WuQ4-27">
          <mxGeometry x="570" y="140" width="80" height="80" as="geometry" />
        </mxCell>
        <mxCell id="h0lgFhRinCzN1165WuQ4-22" value="Microcontroller" style="whiteSpace=wrap;html=1;" vertex="1" parent="h0lgFhRinCzN1165WuQ4-27">
          <mxGeometry x="270" y="143.75" width="180" height="72.5" as="geometry" />
        </mxCell>
        <mxCell id="h0lgFhRinCzN1165WuQ4-29" style="edgeStyle=orthogonalEdgeStyle;rounded=0;orthogonalLoop=1;jettySize=auto;html=1;entryX=0;entryY=0.5;entryDx=0;entryDy=0;" edge="1" parent="h0lgFhRinCzN1165WuQ4-27" source="h0lgFhRinCzN1165WuQ4-22" target="h0lgFhRinCzN1165WuQ4-28">
          <mxGeometry relative="1" as="geometry" />
        </mxCell>
        <mxCell id="h0lgFhRinCzN1165WuQ4-31" value="Temperature data&lt;br&gt;packaged into a&lt;div&gt;message&lt;/div&gt;" style="text;html=1;align=center;verticalAlign=middle;resizable=0;points=[];autosize=1;strokeColor=none;fillColor=none;" vertex="1" parent="h0lgFhRinCzN1165WuQ4-27">
          <mxGeometry x="450" y="180" width="120" height="60" as="geometry" />
        </mxCell>
        <mxCell id="h0lgFhRinCzN1165WuQ4-32" value="LoRa message" style="text;html=1;align=center;verticalAlign=middle;resizable=0;points=[];autosize=1;strokeColor=none;fillColor=none;" vertex="1" parent="h0lgFhRinCzN1165WuQ4-27">
          <mxGeometry x="660" y="180" width="100" height="30" as="geometry" />
        </mxCell>
      </root>
    </mxGraphModel>
  </diagram>
</mxfile>
